<?xml version="1.0" encoding="utf-8"?>
<!-- Generator: Adobe Illustrator 22.0.1, SVG Export Plug-In . SVG Version: 6.00 Build 0)  -->
<svg version="1.1" id="Layer_1" xmlns="http://www.w3.org/2000/svg" xmlns:xlink="http://www.w3.org/1999/xlink" x="0px" y="0px"
	 viewBox="0 0 378 77" style="enable-background:new 0 0 378 77;" xml:space="preserve">
<g>
	<path d="M22.7,42.8h-20V0.7h19.5c8.6,0,13.9,4.3,13.9,10.9v0.1c0,4.7-2.5,7.4-5.5,9.1c4.9,1.9,7.9,4.7,7.9,10.4v0.1
		C38.4,38.9,32.2,42.8,22.7,42.8z M26.9,13.1c0-2.8-2.2-4.3-6.1-4.3h-9.1v8.9h8.5c4.1,0,6.7-1.3,6.7-4.4V13.1z M29.2,30
		c0-2.8-2.1-4.6-6.9-4.6H11.7v9.3h11c4.1,0,6.6-1.4,6.6-4.6C29.2,30.1,29.2,30,29.2,30z"/>
	<path d="M45.9,42.8V0.7h9.3v33.7h21v8.4L45.9,42.8L45.9,42.8z"/>
	<path d="M115.1,42.8l-3.8-9.4H93.5l-3.8,9.4h-9.4l18-42.4h8.5l18.1,42.4C124.8,42.8,115.1,42.8,115.1,42.8z M102.4,11.5l-5.6,13.7
		H108L102.4,11.5z"/>
	<path d="M147.5,43.5c-12.4,0-21.6-9.6-21.6-21.6v-0.1c0-12,9-21.8,21.9-21.8c7.9,0,12.7,2.7,16.6,6.5l-5.9,6.8
		c-3.3-2.9-6.6-4.8-10.8-4.8c-7.1,0-12.2,5.9-12.2,13.1v0.1c0,7.2,5,13.2,12.2,13.2c4.8,0,7.8-1.9,11.1-4.9l5.9,6
		C160.5,40.6,155.6,43.5,147.5,43.5z"/>
	<path d="M198.2,42.8l-13.1-17.9l-4.9,5.1v12.9H171V0.7h9.3v18.4l17.1-18.4h11.2l-17.1,17.9l17.9,24.2L198.2,42.8L198.2,42.8z"/>
	<path d="M253,42.8h-20V0.7h19.6c8.6,0,13.9,4.3,13.9,10.9v0.1c0,4.7-2.5,7.4-5.5,9.1c4.9,1.9,7.9,4.7,7.9,10.4v0.1
		C268.7,38.9,262.5,42.8,253,42.8z M257.2,13.1c0-2.8-2.2-4.3-6.1-4.3H242v8.9h8.5c4.1,0,6.7-1.3,6.7-4.4V13.1z M259.5,30
		c0-2.8-2.1-4.6-6.9-4.6H242v9.3h11c4.1,0,6.6-1.4,6.6-4.6L259.5,30L259.5,30z"/>
	<path d="M276.4,42.8V0.7h9.3v42.1L276.4,42.8L276.4,42.8z"/>
	<path d="M321.1,42.8l-9-13.5h-7.3v13.5h-9.3V0.7h19.3c9.9,0,15.9,5.2,15.9,13.9v0.1c0,6.8-3.7,11.1-9,13.1l10.3,15L321.1,42.8
		L321.1,42.8z M321.3,15.1c0-4-2.8-6-7.3-6h-9.2v12.1h9.4c4.5,0,7.1-2.4,7.1-5.9V15.1z"/>
	<path d="M355.1,42.8h-16.4V0.7h16.4c13.2,0,22.4,9.1,22.4,20.9v0.1C377.5,33.6,368.3,42.8,355.1,42.8z M367.8,21.7
		c0-7.5-5.1-12.7-12.7-12.7h-7.2v25.4h7.2c7.6,0,12.7-5.1,12.7-12.6V21.7z"/>
</g>
<g>
	<path d="M135.9,77c-4.2,0-7.4-3.3-7.4-7.6c0-4.2,3.1-7.6,7.4-7.6c2.7,0,4.3,0.9,5.7,2.3l-1.1,1.2c-1.2-1.2-2.6-2-4.6-2
		c-3.3,0-5.7,2.6-5.7,6c0,3.4,2.5,6.1,5.7,6.1c2,0,3.3-0.8,4.8-2.1l1.1,1.1C140.2,76,138.6,77,135.9,77z"/>
	<path d="M146.3,62.1h1.7v13.2h8.3v1.5h-9.9L146.3,62.1L146.3,62.1z"/>
	<path d="M166.7,77c-4.5,0-7.5-3.5-7.5-7.6c0-4.1,3-7.6,7.5-7.6s7.5,3.5,7.5,7.6C174.2,73.5,171.1,77,166.7,77z M166.7,63.4
		c-3.4,0-5.8,2.7-5.8,6.1s2.4,6.1,5.8,6.1s5.8-2.7,5.8-6.1S170,63.4,166.7,63.4z"/>
	<path d="M183.8,76.8h-1.7V63.6h-4.9v-1.5h11.6v1.5h-4.9L183.8,76.8L183.8,76.8z"/>
	<path d="M194.9,70.2v6.6h-1.7V62.1h1.7v6.5h8.5v-6.5h1.7v14.7h-1.7v-6.6H194.9z"/>
	<path d="M212.6,62.1v14.7H211V62.1H212.6z"/>
	<path d="M229.3,62.1h1.6v14.7h-1.3l-9.5-12.1v12.1h-1.6V62.1h1.6l9.3,11.8L229.3,62.1L229.3,62.1z"/>
	<path d="M243.6,77c-4.6,0-7.5-3.4-7.5-7.6c0-4.1,3-7.6,7.4-7.6c2.5,0,4,0.7,5.5,2l-1.1,1.3c-1.1-1-2.4-1.7-4.5-1.7
		c-3.3,0-5.6,2.8-5.6,6.1c0,3.5,2.3,6.1,5.8,6.1c1.7,0,3.2-0.6,4.2-1.5v-3.6h-4.5v-1.5h6.1v5.9C248.1,76,246.1,77,243.6,77z"/>
</g>
<g>
	<rect x="0" y="68.6" width="112.7" height="1.7"/>
	<rect x="265.4" y="68.6" width="112.6" height="1.7"/>
</g>
</svg>
