<?xml version="1.0" encoding="utf-8"?>
<!-- Generator: Adobe Illustrator 22.1.0, SVG Export Plug-In . SVG Version: 6.00 Build 0)  -->
<svg version="1.1" id="Capa_1" xmlns="http://www.w3.org/2000/svg" xmlns:xlink="http://www.w3.org/1999/xlink" x="0px" y="0px"
	 viewBox="0 0 612 792" style="enable-background:new 0 0 612 792;" xml:space="preserve">
<style type="text/css">
	.st0{fill:#4F4F4F;}
</style>
<g>
	<g>
		<g>
			<path class="st0" d="M369.3,194c0-8.3-6.7-15-15-15h-93.5c1.2-2.1,1.9-4.6,1.9-7.1c0-7.9-6.5-14.4-14.4-14.4H234
				c-7.9,0-14.4,6.5-14.4,14.4c0,2.6,0.7,5.1,1.9,7.1h-2.5v-27.5c0-4.1-1.6-8-4.6-10.9c-2.9-2.9-6.8-4.6-10.9-4.6
				c-8.5,0-15.4,6.9-15.4,15.4v77.8h12v7.7h14.2v-7.7h128.7v7.7h14.3v-7.7h11.1v-27.5h-1.2C368.5,199.4,369.3,196.7,369.3,194z
				 M226.8,171.9c0-4,3.2-7.1,7.1-7.1h14.4c4,0,7.1,3.2,7.1,7.1c0,4-3.2,7.1-7.1,7.1H234C230,179,226.8,175.8,226.8,171.9z
				 M195.4,151.5c0-4.5,3.7-8.2,8.2-8.2c2.2,0,4.2,0.9,5.8,2.4s2.4,3.6,2.4,5.8v50.2h-16.3V151.5z M361.1,221.9H195.4v-13h165.7
				V221.9z M359.7,199.5c-1.5,1.5-3.4,2.2-5.4,2.2H218.9v-15.4h135.4c4.2,0,7.7,3.4,7.7,7.7C361.9,196,361.2,198,359.7,199.5z"/>
		</g>
	</g>
</g>
</svg>
