<?xml version="1.0" encoding="utf-8"?>
<!-- Generator: Adobe Illustrator 22.1.0, SVG Export Plug-In . SVG Version: 6.00 Build 0)  -->
<svg version="1.1" id="Capa_1" xmlns="http://www.w3.org/2000/svg" xmlns:xlink="http://www.w3.org/1999/xlink" x="0px" y="0px"
	 viewBox="0 0 612 792" style="enable-background:new 0 0 612 792;" xml:space="preserve">
<style type="text/css">
	.st0{fill:#4F4F4F;}
</style>
<g>
	<g>
		<path class="st0" d="M308.2,247.4h-12.4c-1.1,0-1.8-0.8-1.8-1.8c0-1.1,0.8-1.8,1.8-1.8h12.4c1.1,0,1.8,0.8,1.8,1.8
			C310,246.5,309.2,247.4,308.2,247.4z"/>
	</g>
	<g>
		<path class="st0" d="M308.2,274.8h-12.4c-1.1,0-1.8-0.8-1.8-1.8c0-1.1,0.8-1.8,1.8-1.8h12.4c1.1,0,1.8,0.8,1.8,1.8
			C310,274,309.2,274.8,308.2,274.8z"/>
	</g>
	<g>
		<path class="st0" d="M243.7,215.5v-2.7h-23.5v2.7h-34.3v3v18.1v57.1h5.9v-57.1h78.9v57.1h62.7v-57v-5.9v-15.2L243.7,215.5z
			 M327.4,287.8h-50.8v-22.6h50.8V287.8z M327.4,259.2h-50.8v-22.6h50.8V259.2z M327.4,230.7h-56.8h-78.9v-9.2l135.6,0.1
			L327.4,230.7z"/>
	</g>
	<g>
		<path class="st0" d="M199.7,166.2v44h64.5v-44H199.7z M258.2,204.2h-52.6v-32.1h52.6V204.2z"/>
	</g>
</g>
</svg>
