<?xml version="1.0" encoding="utf-8"?>
<!-- Generator: Adobe Illustrator 22.1.0, SVG Export Plug-In . SVG Version: 6.00 Build 0)  -->
<svg version="1.1" id="Capa_1" xmlns="http://www.w3.org/2000/svg" xmlns:xlink="http://www.w3.org/1999/xlink" x="0px" y="0px"
	 viewBox="0 0 612 792" style="enable-background:new 0 0 612 792;" xml:space="preserve">
<style type="text/css">
	.st0{fill:#4F4F4F;}
</style>
<g>
	<g>
		<path class="st0" d="M327.6,127h-68.1c-6.9,0-12.5,5.6-12.5,12.5v91.2c0,5.1,3.1,9.5,7.5,11.5c1.5,0.7,3.3,1.1,5,1.1h68.1
			c1,0,2.1-0.1,3.1-0.4c5.5-1.4,9.5-6.3,9.5-12.2v-91.3C340.1,132.6,334.5,127,327.6,127z M334,230.7c0,3.5-2.8,6.4-6.4,6.4h-68.1
			c-0.7,0-1.5-0.1-2.1-0.4c-1.9-0.7-3.3-2.2-3.9-4c-0.2-0.7-0.3-1.3-0.3-2v-91.2c0-3.5,2.8-6.4,6.4-6.4h68.1c3.6,0,6.4,2.8,6.4,6.4
			L334,230.7L334,230.7z"/>
	</g>
	<g>
		<g>
			<rect x="254.5" y="240.2" class="st0" width="12" height="8.2"/>
		</g>
		<g>
			<rect x="318.6" y="240.2" class="st0" width="12" height="8.2"/>
		</g>
	</g>
	<g>
		<path class="st0" d="M337,150.9h-87c-1.1,0-1.9-0.9-1.9-1.9s0.9-1.9,1.9-1.9h87.1c1.1,0,1.9,0.9,1.9,1.9S338.1,150.9,337,150.9z"
			/>
	</g>
	<g>
		<path class="st0" d="M293.6,242.1c-1.1,0-1.9-0.9-1.9-1.9v-91.3c0-1.1,0.9-1.9,1.9-1.9c1.1,0,1.9,0.9,1.9,1.9v91.2
			C295.5,241.2,294.6,242.1,293.6,242.1z"/>
	</g>
	<g>
		<path class="st0" d="M337,172.7h-43.5c-1.1,0-1.9-0.9-1.9-1.9s0.9-1.9,1.9-1.9H337c1.1,0,1.9,0.9,1.9,1.9S338.1,172.7,337,172.7z"
			/>
	</g>
	<g>
		<path class="st0" d="M318.5,158.6h-6.9c-1.1,0-1.9-0.9-1.9-1.9s0.9-1.9,1.9-1.9h6.9c1.1,0,1.9,0.9,1.9,1.9
			S319.6,158.6,318.5,158.6z"/>
	</g>
	<g>
		<path class="st0" d="M258,168.6c-0.5,0-1-0.2-1.4-0.6c-0.7-0.7-0.7-2,0-2.7l17.9-17.9c0.7-0.7,2-0.7,2.7,0c0.7,0.7,0.7,2,0,2.7
			L259.3,168C259,168.5,258.5,168.6,258,168.6z"/>
	</g>
	<g>
		<path class="st0" d="M250.2,198.2c-0.5,0-1-0.2-1.4-0.6c-0.7-0.7-0.7-2,0-2.7l36.9-36.9c0.7-0.7,2-0.7,2.7,0c0.7,0.7,0.7,2,0,2.7
			l-36.9,36.9C251.1,198,250.7,198.2,250.2,198.2z"/>
	</g>
	<g>
		<path class="st0" d="M250.6,234.7c-0.5,0-1-0.2-1.4-0.6c-0.7-0.7-0.7-2,0-2.7l42.9-42.9c0.7-0.7,2-0.7,2.7,0c0.7,0.7,0.7,2,0,2.7
			l-42.9,42.9C251.6,234.6,251.1,234.7,250.6,234.7z"/>
	</g>
	<g>
		<path class="st0" d="M256.8,241.9c-0.5,0-1-0.2-1.4-0.6c-0.7-0.7-0.7-2,0-2.7l26.9-26.9c0.7-0.7,2-0.7,2.7,0c0.7,0.7,0.7,2,0,2.7
			l-26.9,26.9C257.8,241.8,257.3,241.9,256.8,241.9z"/>
	</g>
</g>
</svg>
