<?xml version="1.0" encoding="utf-8"?>
<!-- Generator: Adobe Illustrator 22.1.0, SVG Export Plug-In . SVG Version: 6.00 Build 0)  -->
<svg version="1.1" id="Capa_1" xmlns="http://www.w3.org/2000/svg" xmlns:xlink="http://www.w3.org/1999/xlink" x="0px" y="0px"
	 viewBox="0 0 612 792" style="enable-background:new 0 0 612 792;" xml:space="preserve">
<style type="text/css">
	.st0{fill:#4F4F4F;}
</style>
<g>
	<g>
		<g>
			<rect x="213.5" y="228" class="st0" width="14.2" height="9.7"/>
		</g>
		<g>
			<rect x="345.8" y="228" class="st0" width="14.2" height="9.7"/>
		</g>
	</g>
	<g>
		<path class="st0" d="M353.8,121.1H219.7c-7.4,0-13.4,6-13.4,13.4v22h12.6c2.9,0,5.3,2.4,5.3,5.3v16.5c-0.1,0.1-0.1,0.1-0.2,0.2
			c-0.1,0.1-0.1,0.1-0.2,0.2c-0.6,0.8-1.2,1.6-1.6,2.6c-0.1,0.2-0.2,0.3-0.3,0.6c-0.1,0.3-0.2,0.4-0.3,0.6c-0.1,0.1-0.1,0.3-0.1,0.3
			c-0.1,0.2-0.1,0.3-0.2,0.5c-0.1,0.2-0.1,0.3-0.2,0.5c0,0.1-0.1,0.3-0.1,0.3c0,0.2-0.1,0.3-0.1,0.4c0,0.1,0,0.3-0.1,0.3
			c-0.1,0.6-0.1,1.2-0.1,1.8v7.2c0,7.1,5.7,12.8,12.8,12.8h106.3c7.1,0,12.8-5.7,12.8-12.8v-7.2c0-0.6-0.1-1.2-0.1-1.8
			c0-0.1,0-0.3-0.1-0.3c0-0.2-0.1-0.3-0.1-0.4c0-0.1-0.1-0.3-0.1-0.3c-0.1-0.2-0.1-0.3-0.2-0.5c-0.1-0.2-0.1-0.3-0.2-0.5
			c0-0.1-0.1-0.3-0.1-0.3c-0.1-0.2-0.2-0.4-0.3-0.6c-0.1-0.2-0.2-0.3-0.3-0.6c-0.4-0.9-1-1.8-1.6-2.6c-0.1-0.1-0.1-0.1-0.2-0.2
			c-0.1-0.1-0.1-0.1-0.2-0.2v-16.5c0-2.9,2.4-5.3,5.3-5.3h12.6v-22C367.4,127.1,361.3,121.1,353.8,121.1z M354.8,149.2
			c-6.9,0-12.6,5.7-12.6,12.6v12.2H340v7.2c3,0,5.5,2.5,5.5,5.5v7.2c0,3-2.5,5.5-5.5,5.5H233.6c-3,0-5.5-2.5-5.5-5.5v-7.2
			c0-3,2.5-5.5,5.5-5.5v-7.2h-2.2v-12.2c0-6.9-5.7-12.6-12.6-12.6h-5.3v-14.7c0-3.4,2.8-6.2,6.2-6.2h134.3c3.4,0,6.2,2.8,6.2,6.2
			v14.7H354.8z"/>
	</g>
	<g>
		<path class="st0" d="M286.7,163.3c-1.3,0-2.2-1-2.2-2.2v-20c0-1.3,1-2.2,2.2-2.2c1.3,0,2.2,1,2.2,2.2v20
			C289,162.3,288,163.3,286.7,163.3z"/>
	</g>
	<g>
		<path class="st0" d="M352.6,185c0-0.1,0-0.3-0.1-0.3c0-0.2-0.1-0.3-0.1-0.4c0-0.1-0.1-0.3-0.1-0.3c-0.1-0.2-0.1-0.3-0.2-0.5
			c-0.1-0.2-0.1-0.3-0.2-0.5c0-0.1-0.1-0.3-0.1-0.3c-0.1-0.2-0.2-0.4-0.3-0.6c-0.1-0.2-0.2-0.3-0.3-0.6c-0.4-0.9-1-1.8-1.6-2.6
			c-0.1-0.1-0.1-0.1-0.2-0.2c-2.3-2.8-5.9-4.5-9.7-4.5H233.6c-3.9,0-7.3,1.7-9.7,4.5c-0.1,0.1-0.1,0.1-0.2,0.2
			c-0.6,0.8-1.2,1.6-1.6,2.6c-0.1,0.2-0.2,0.3-0.3,0.6c-0.1,0.3-0.2,0.4-0.3,0.6c-0.1,0.1-0.1,0.3-0.1,0.3c-0.1,0.2-0.1,0.3-0.2,0.5
			c-0.1,0.2-0.1,0.3-0.2,0.5c0,0.1-0.1,0.3-0.1,0.3c0,0.2-0.1,0.3-0.1,0.4c0,0.1,0,0.3-0.1,0.3c-0.1,0.6-0.1,1.2-0.1,1.8v7.2
			c0,7.1,5.7,12.8,12.8,12.8h106.3c7.1,0,12.8-5.7,12.8-12.8v-7.2C352.6,186.2,352.6,185.6,352.6,185z M345.4,194
			c0,3-2.5,5.5-5.5,5.5H233.6c-3,0-5.5-2.5-5.5-5.5v-7.2c0-3,2.5-5.5,5.5-5.5h106.3c3,0,5.5,2.5,5.5,5.5V194z"/>
	</g>
	<g>
		<path class="st0" d="M367.4,149.7c-1.1-0.3-2.2-0.4-3.4-0.4h-9.2c-6.9,0-12.6,5.7-12.6,12.6v12.2h-2.2v7.2c3,0,5.5,2.5,5.5,5.5
			v7.2c0,3-2.5,5.5-5.5,5.5H233.6c-3,0-5.5-2.5-5.5-5.5v-7.2c0-3,2.5-5.5,5.5-5.5v-7.2h-2.2v-12.2c0-6.9-5.7-12.6-12.6-12.6h-9.2
			c-1.2,0-2.3,0.2-3.4,0.4c-5.3,1.5-9.1,6.4-9.1,12.2V219c0,6.9,5.7,12.6,12.6,12.6H364c6.9,0,12.6-5.7,12.6-12.6v-57.2
			C376.5,156,372.6,151.1,367.4,149.7z M369.3,219c0,2.9-2.4,5.3-5.3,5.3H209.6c-2.9,0-5.3-2.4-5.3-5.3v-57.2c0-2.9,2.4-5.3,5.3-5.3
			h9.2c2.9,0,5.3,2.4,5.3,5.3v16.5c-0.1,0.1-0.1,0.1-0.2,0.2c-0.1,0.1-0.1,0.1-0.2,0.2c-0.6,0.8-1.2,1.6-1.6,2.6
			c-0.1,0.2-0.2,0.3-0.3,0.6c-0.1,0.3-0.2,0.4-0.3,0.6c-0.1,0.1-0.1,0.3-0.1,0.3c-0.1,0.2-0.1,0.3-0.2,0.5c-0.1,0.2-0.1,0.3-0.2,0.5
			c0,0.1-0.1,0.3-0.1,0.3c0,0.2-0.1,0.3-0.1,0.4c0,0.1,0,0.3-0.1,0.3c-0.1,0.6-0.1,1.2-0.1,1.8v7.2c0,7.1,5.7,12.8,12.8,12.8h106.3
			c7.1,0,12.8-5.7,12.8-12.8v-7.2c0-0.6-0.1-1.2-0.1-1.8c0-0.1,0-0.3-0.1-0.3c0-0.2-0.1-0.3-0.1-0.4c0-0.1-0.1-0.3-0.1-0.3
			c-0.1-0.2-0.1-0.3-0.2-0.5c-0.1-0.2-0.1-0.3-0.2-0.5c0-0.1-0.1-0.3-0.1-0.3c-0.1-0.2-0.2-0.4-0.3-0.6c-0.1-0.2-0.2-0.3-0.3-0.6
			c-0.4-0.9-1-1.8-1.6-2.6c-0.1-0.1-0.1-0.1-0.2-0.2c-0.1-0.1-0.1-0.1-0.2-0.2v-16.5c0-2.9,2.4-5.3,5.3-5.3h9.2
			c2.9,0,5.3,2.4,5.3,5.3L369.3,219L369.3,219z"/>
	</g>
	<g>
		<path class="st0" d="M352.6,185c0-0.1,0-0.3-0.1-0.3c0-0.2-0.1-0.3-0.1-0.4c0-0.1-0.1-0.3-0.1-0.3c-0.1-0.2-0.1-0.3-0.2-0.5
			c-0.1-0.2-0.1-0.3-0.2-0.5c0-0.1-0.1-0.3-0.1-0.3c-0.1-0.2-0.2-0.4-0.3-0.6c-0.1-0.2-0.2-0.3-0.3-0.6c-0.4-0.9-1-1.8-1.6-2.6
			c-0.1-0.1-0.1-0.1-0.2-0.2c-2.3-2.8-5.9-4.5-9.7-4.5H233.6c-3.9,0-7.3,1.7-9.7,4.5c-0.1,0.1-0.1,0.1-0.2,0.2
			c-0.6,0.8-1.2,1.6-1.6,2.6c-0.1,0.2-0.2,0.3-0.3,0.6c-0.1,0.3-0.2,0.4-0.3,0.6c-0.1,0.1-0.1,0.3-0.1,0.3c-0.1,0.2-0.1,0.3-0.2,0.5
			c-0.1,0.2-0.1,0.3-0.2,0.5c0,0.1-0.1,0.3-0.1,0.3c0,0.2-0.1,0.3-0.1,0.4c0,0.1,0,0.3-0.1,0.3c-0.1,0.6-0.1,1.2-0.1,1.8v7.2
			c0,7.1,5.7,12.8,12.8,12.8h106.3c7.1,0,12.8-5.7,12.8-12.8v-7.2C352.6,186.2,352.6,185.6,352.6,185z M345.4,194
			c0,3-2.5,5.5-5.5,5.5H233.6c-3,0-5.5-2.5-5.5-5.5v-7.2c0-3,2.5-5.5,5.5-5.5h106.3c3,0,5.5,2.5,5.5,5.5V194z"/>
	</g>
</g>
</svg>
